<?xml version="1.0" standalone="no"?>
<!DOCTYPE svg PUBLIC "-//W3C//DTD SVG 20010904//EN"
 "http://www.w3.org/TR/2001/REC-SVG-20010904/DTD/svg10.dtd">
<svg version="1.0" xmlns="http://www.w3.org/2000/svg"
 width="300.000000pt" height="289.000000pt" viewBox="0 0 300.000000 289.000000"
 preserveAspectRatio="xMidYMid meet">
<metadata>
Created by potrace 1.10, written by Peter Selinger 2001-2011
</metadata>
<g transform="translate(0.000000,289.000000) scale(0.100000,-0.100000)"
fill="#000000" stroke="none">
<path d="M1640 2236 l0 -655 -34 14 c-69 29 -287 36 -352 11 -11 -4 -55 -170
-69 -261 l-7 -40 74 -28 c40 -16 100 -45 133 -65 133 -82 184 -118 185 -129 0
-17 -11 -16 -35 1 -22 15 -191 80 -269 103 -57 17 -85 9 -113 -34 -15 -23 -19
-57 -23 -223 -5 -177 -6 -191 -18 -155 -20 62 -52 292 -52 372 l0 72 -107 35
c-189 60 -372 80 -507 55 -135 -25 -207 -77 -368 -269 -49 -57 -30 -56 29 2
136 131 366 208 625 208 l87 0 -30 -66 c-49 -107 -72 -239 -65 -369 7 -142 26
-219 82 -331 93 -190 238 -318 431 -383 72 -24 261 -29 340 -9 58 14 178 75
245 124 60 45 158 165 197 243 42 83 80 210 91 309 6 50 10 387 10 790 l0 702
33 0 c55 0 184 -37 250 -72 75 -40 174 -131 232 -213 80 -113 183 -338 232
-510 l23 -80 -4 200 c-5 212 -19 310 -63 449 -33 104 -91 228 -137 291 -47 64
-158 177 -220 223 -99 73 -291 160 -504 228 -114 37 -223 74 -242 84 -19 10
-45 21 -57 24 l-23 7 0 -655z m85 594 c15 -11 137 -54 270 -95 198 -62 374
-147 486 -235 36 -28 140 -136 178 -184 95 -120 203 -451 200 -610 -1 -41 -1
-41 -25 29 -16 47 -22 58 -19 33 4 -22 2 -38 -4 -38 -5 0 -15 17 -22 38 -6 20
-16 42 -21 49 -5 6 -25 41 -43 77 -56 109 -151 220 -261 304 -23 18 -48 32
-56 32 -8 0 -18 4 -23 8 -38 31 -275 77 -263 50 2 -3 -5 -15 -15 -26 -17 -19
-18 -53 -18 -614 1 -522 -1 -590 -14 -568 -18 32 -18 28 0 -40 42 -156 -2
-444 -92 -601 -37 -63 -128 -169 -178 -205 l-40 -29 23 39 c13 21 21 41 18 43
-2 3 -11 -9 -20 -25 -29 -56 -114 -108 -226 -137 -80 -21 -248 -14 -327 13
-226 79 -407 290 -458 534 -18 81 -21 269 -6 318 6 19 11 46 11 61 0 14 15 63
34 110 33 80 36 84 63 81 35 -4 134 -39 146 -51 5 -5 11 -45 13 -88 5 -139 16
-235 30 -269 8 -19 13 -37 12 -41 -1 -5 6 -25 15 -47 9 -21 17 -57 17 -80 0
-91 37 -152 114 -190 28 -14 32 -14 44 1 7 10 12 12 12 5 0 -7 5 -12 11 -12 5
0 8 4 5 9 -4 5 7 12 24 16 17 4 28 10 26 13 -5 8 15 26 33 30 7 1 20 9 28 17
8 9 19 13 24 10 5 -4 9 -1 9 5 0 6 5 8 10 5 6 -3 10 -1 10 4 0 6 5 11 10 11
16 0 120 71 120 82 0 5 4 7 9 3 5 -3 18 6 29 19 10 14 25 26 33 28 37 8 55 65
50 160 -1 35 -49 89 -109 124 -59 34 -59 34 -46 42 6 4 15 16 21 26 13 23 -16
59 -81 103 -22 15 -46 33 -52 39 -7 6 -52 30 -100 53 -49 23 -96 46 -104 50
-22 11 -26 69 -5 77 14 6 14 8 -2 19 -13 9 -14 16 -7 26 6 8 17 40 24 71 12
53 16 58 49 69 57 19 165 18 259 -2 47 -11 87 -19 88 -19 1 0 7 15 13 33 7 21
9 90 5 194 -6 170 -3 182 40 233 20 24 20 24 0 7 -29 -24 -35 -21 -28 9 5 21
4 25 -6 19 -10 -6 -11 -1 -6 21 3 16 6 111 6 210 l-1 182 28 21 c19 15 21 19
6 12 -12 -6 -26 -11 -31 -11 -12 0 -10 329 1 347 7 11 30 8 52 -7z m-1135
-1550 c0 -5 -15 -10 -33 -10 -17 0 -48 -4 -66 -10 -19 -5 -49 -11 -68 -12 -18
-1 -33 -6 -33 -10 0 -4 -8 -8 -18 -8 -10 0 -23 -5 -30 -12 -7 -7 -12 -8 -12
-2 0 6 9 19 20 29 11 10 20 15 20 11 0 -4 10 -1 22 5 40 21 198 36 198 19z
m792 -171 c154 -93 275 -176 292 -201 9 -12 16 -40 16 -62 0 -49 -39 -88 -166
-167 -49 -31 -127 -80 -172 -109 -101 -65 -141 -71 -177 -25 -33 40 -34 55
-29 290 6 266 9 291 41 322 35 36 70 27 195 -48z"/>
<path d="M1550 1313 c14 -10 50 -37 80 -61 l55 -43 -49 46 c-27 25 -63 53 -80
61 l-31 14 25 -17z"/>
<path d="M210 2745 c-24 -25 -42 -45 -38 -45 8 0 89 82 85 86 -2 2 -23 -17
-47 -41z"/>
<path d="M1050 1513 c-47 -35 -130 -115 -130 -125 0 -4 11 -8 25 -8 14 0 47
-9 75 -19 47 -18 54 -18 51 3 -1 4 3 44 9 88 6 44 10 82 8 84 -2 1 -19 -9 -38
-23z m0 -83 c0 -25 -4 -30 -25 -30 -31 0 -33 23 -3 44 29 21 28 21 28 -14z"/>
<path d="M738 63 c23 -2 59 -2 80 0 20 2 1 4 -43 4 -44 0 -61 -2 -37 -4z"/>
<path d="M2023 63 c53 -2 141 -2 195 0 53 1 9 3 -98 3 -107 0 -151 -2 -97 -3z"/>
</g>
</svg>
